<mxfile host="app.diagrams.net" agent="Mozilla/5.0 (Windows NT 10.0; Win64; x64) AppleWebKit/537.36 (KHTML, like Gecko) Chrome/128.0.0.0 Safari/537.36 OPR/114.0.0.0" version="24.8.4">
  <diagram name="1 oldal" id="M2lxbGfFCIbtQnFnjS9T">
    <mxGraphModel dx="1393" dy="802" grid="1" gridSize="10" guides="1" tooltips="1" connect="1" arrows="1" fold="1" page="1" pageScale="1" pageWidth="827" pageHeight="1169" math="0" shadow="0">
      <root>
        <mxCell id="0" />
        <mxCell id="1" parent="0" />
        <mxCell id="J8be5djoPyq5z8u-Urgu-1" value="Felhasználó" style="whiteSpace=wrap;html=1;align=center;" parent="1" vertex="1">
          <mxGeometry x="140" y="130" width="100" height="40" as="geometry" />
        </mxCell>
        <mxCell id="XJ3Val_hjWEMoDBAJj5s-13" style="rounded=0;orthogonalLoop=1;jettySize=auto;html=1;exitX=0;exitY=0;exitDx=0;exitDy=0;entryX=1;entryY=1;entryDx=0;entryDy=0;" parent="1" source="J8be5djoPyq5z8u-Urgu-3" target="XJ3Val_hjWEMoDBAJj5s-11" edge="1">
          <mxGeometry relative="1" as="geometry" />
        </mxCell>
        <mxCell id="nqwOCqm9ArOqmD_4J2SY-13" style="rounded=0;orthogonalLoop=1;jettySize=auto;html=1;exitX=0;exitY=0.5;exitDx=0;exitDy=0;entryX=1;entryY=0.5;entryDx=0;entryDy=0;" edge="1" parent="1" source="J8be5djoPyq5z8u-Urgu-3" target="nqwOCqm9ArOqmD_4J2SY-12">
          <mxGeometry relative="1" as="geometry" />
        </mxCell>
        <mxCell id="J8be5djoPyq5z8u-Urgu-3" value="Számítógép" style="whiteSpace=wrap;html=1;align=center;" parent="1" vertex="1">
          <mxGeometry x="522" y="420" width="100" height="40" as="geometry" />
        </mxCell>
        <mxCell id="XJ3Val_hjWEMoDBAJj5s-10" style="rounded=0;orthogonalLoop=1;jettySize=auto;html=1;exitX=0;exitY=0.25;exitDx=0;exitDy=0;entryX=1;entryY=0.5;entryDx=0;entryDy=0;" parent="1" source="J8be5djoPyq5z8u-Urgu-4" target="XJ3Val_hjWEMoDBAJj5s-7" edge="1">
          <mxGeometry relative="1" as="geometry" />
        </mxCell>
        <mxCell id="J8be5djoPyq5z8u-Urgu-4" value="Telefon" style="whiteSpace=wrap;html=1;align=center;" parent="1" vertex="1">
          <mxGeometry x="540" y="130" width="100" height="40" as="geometry" />
        </mxCell>
        <mxCell id="J8be5djoPyq5z8u-Urgu-21" style="rounded=0;orthogonalLoop=1;jettySize=auto;html=1;exitX=0.5;exitY=1;exitDx=0;exitDy=0;entryX=0;entryY=0;entryDx=0;entryDy=0;" parent="1" source="J8be5djoPyq5z8u-Urgu-6" target="J8be5djoPyq5z8u-Urgu-1" edge="1">
          <mxGeometry relative="1" as="geometry" />
        </mxCell>
        <mxCell id="J8be5djoPyq5z8u-Urgu-6" value="Név" style="ellipse;whiteSpace=wrap;html=1;align=center;" parent="1" vertex="1">
          <mxGeometry x="10" y="30" width="100" height="40" as="geometry" />
        </mxCell>
        <mxCell id="J8be5djoPyq5z8u-Urgu-22" style="rounded=0;orthogonalLoop=1;jettySize=auto;html=1;exitX=0.5;exitY=1;exitDx=0;exitDy=0;entryX=0.25;entryY=0;entryDx=0;entryDy=0;" parent="1" source="J8be5djoPyq5z8u-Urgu-7" target="J8be5djoPyq5z8u-Urgu-1" edge="1">
          <mxGeometry relative="1" as="geometry" />
        </mxCell>
        <mxCell id="J8be5djoPyq5z8u-Urgu-7" value="&lt;u&gt;email&lt;/u&gt;" style="ellipse;whiteSpace=wrap;html=1;align=center;" parent="1" vertex="1">
          <mxGeometry x="140" y="30" width="100" height="40" as="geometry" />
        </mxCell>
        <mxCell id="J8be5djoPyq5z8u-Urgu-24" style="rounded=0;orthogonalLoop=1;jettySize=auto;html=1;exitX=0.5;exitY=1;exitDx=0;exitDy=0;entryX=0.75;entryY=0;entryDx=0;entryDy=0;" parent="1" source="J8be5djoPyq5z8u-Urgu-9" target="J8be5djoPyq5z8u-Urgu-1" edge="1">
          <mxGeometry relative="1" as="geometry" />
        </mxCell>
        <mxCell id="J8be5djoPyq5z8u-Urgu-9" value="jelszó" style="ellipse;whiteSpace=wrap;html=1;align=center;" parent="1" vertex="1">
          <mxGeometry x="260" y="30" width="100" height="40" as="geometry" />
        </mxCell>
        <mxCell id="J8be5djoPyq5z8u-Urgu-25" style="rounded=0;orthogonalLoop=1;jettySize=auto;html=1;exitX=0.5;exitY=1;exitDx=0;exitDy=0;entryX=1;entryY=0;entryDx=0;entryDy=0;" parent="1" source="J8be5djoPyq5z8u-Urgu-10" target="J8be5djoPyq5z8u-Urgu-1" edge="1">
          <mxGeometry relative="1" as="geometry" />
        </mxCell>
        <mxCell id="J8be5djoPyq5z8u-Urgu-10" value="Admin" style="ellipse;whiteSpace=wrap;html=1;align=center;" parent="1" vertex="1">
          <mxGeometry x="370" y="30" width="100" height="40" as="geometry" />
        </mxCell>
        <mxCell id="J8be5djoPyq5z8u-Urgu-57" style="rounded=0;orthogonalLoop=1;jettySize=auto;html=1;exitX=0;exitY=0.5;exitDx=0;exitDy=0;entryX=1;entryY=0;entryDx=0;entryDy=0;" parent="1" source="J8be5djoPyq5z8u-Urgu-32" target="J8be5djoPyq5z8u-Urgu-4" edge="1">
          <mxGeometry relative="1" as="geometry" />
        </mxCell>
        <mxCell id="J8be5djoPyq5z8u-Urgu-32" value="&lt;u&gt;Leltári szám&lt;/u&gt;" style="ellipse;whiteSpace=wrap;html=1;align=center;" parent="1" vertex="1">
          <mxGeometry x="720" y="30" width="100" height="40" as="geometry" />
        </mxCell>
        <mxCell id="J8be5djoPyq5z8u-Urgu-58" style="rounded=0;orthogonalLoop=1;jettySize=auto;html=1;exitX=0.5;exitY=0;exitDx=0;exitDy=0;entryX=0;entryY=0.5;entryDx=0;entryDy=0;" parent="1" target="XJ3Val_hjWEMoDBAJj5s-1" edge="1">
          <mxGeometry relative="1" as="geometry">
            <mxPoint x="654.9999999999998" y="269.9999999999999" as="sourcePoint" />
          </mxGeometry>
        </mxCell>
        <mxCell id="J8be5djoPyq5z8u-Urgu-59" style="rounded=0;orthogonalLoop=1;jettySize=auto;html=1;exitX=0;exitY=0.5;exitDx=0;exitDy=0;entryX=1;entryY=0.75;entryDx=0;entryDy=0;" parent="1" source="J8be5djoPyq5z8u-Urgu-34" target="J8be5djoPyq5z8u-Urgu-4" edge="1">
          <mxGeometry relative="1" as="geometry" />
        </mxCell>
        <mxCell id="J8be5djoPyq5z8u-Urgu-34" value="Típus" style="ellipse;whiteSpace=wrap;html=1;align=center;" parent="1" vertex="1">
          <mxGeometry x="720" y="90" width="100" height="40" as="geometry" />
        </mxCell>
        <mxCell id="J8be5djoPyq5z8u-Urgu-60" style="rounded=0;orthogonalLoop=1;jettySize=auto;html=1;exitX=0;exitY=0.5;exitDx=0;exitDy=0;entryX=1;entryY=1;entryDx=0;entryDy=0;" parent="1" source="J8be5djoPyq5z8u-Urgu-35" target="J8be5djoPyq5z8u-Urgu-4" edge="1">
          <mxGeometry relative="1" as="geometry" />
        </mxCell>
        <mxCell id="J8be5djoPyq5z8u-Urgu-35" value="Gyártási dátum" style="ellipse;whiteSpace=wrap;html=1;align=center;" parent="1" vertex="1">
          <mxGeometry x="720" y="140" width="100" height="40" as="geometry" />
        </mxCell>
        <mxCell id="J8be5djoPyq5z8u-Urgu-62" style="rounded=0;orthogonalLoop=1;jettySize=auto;html=1;exitX=0.5;exitY=0;exitDx=0;exitDy=0;entryX=0.25;entryY=1;entryDx=0;entryDy=0;" parent="1" source="J8be5djoPyq5z8u-Urgu-44" target="J8be5djoPyq5z8u-Urgu-3" edge="1">
          <mxGeometry relative="1" as="geometry" />
        </mxCell>
        <mxCell id="J8be5djoPyq5z8u-Urgu-44" value="&lt;u&gt;Leltári szám&lt;/u&gt;" style="ellipse;whiteSpace=wrap;html=1;align=center;" parent="1" vertex="1">
          <mxGeometry x="606" y="550" width="100" height="40" as="geometry" />
        </mxCell>
        <mxCell id="J8be5djoPyq5z8u-Urgu-63" style="rounded=0;orthogonalLoop=1;jettySize=auto;html=1;exitX=0.5;exitY=0;exitDx=0;exitDy=0;entryX=0.75;entryY=1;entryDx=0;entryDy=0;" parent="1" source="J8be5djoPyq5z8u-Urgu-45" target="J8be5djoPyq5z8u-Urgu-3" edge="1">
          <mxGeometry relative="1" as="geometry" />
        </mxCell>
        <mxCell id="J8be5djoPyq5z8u-Urgu-45" value="Processzor" style="ellipse;whiteSpace=wrap;html=1;align=center;" parent="1" vertex="1">
          <mxGeometry x="726" y="550" width="100" height="40" as="geometry" />
        </mxCell>
        <mxCell id="J8be5djoPyq5z8u-Urgu-64" style="rounded=0;orthogonalLoop=1;jettySize=auto;html=1;exitX=0.5;exitY=0;exitDx=0;exitDy=0;entryX=1;entryY=1;entryDx=0;entryDy=0;" parent="1" source="J8be5djoPyq5z8u-Urgu-46" target="J8be5djoPyq5z8u-Urgu-3" edge="1">
          <mxGeometry relative="1" as="geometry" />
        </mxCell>
        <mxCell id="J8be5djoPyq5z8u-Urgu-46" value="Memória" style="ellipse;whiteSpace=wrap;html=1;align=center;" parent="1" vertex="1">
          <mxGeometry x="846" y="550" width="100" height="40" as="geometry" />
        </mxCell>
        <mxCell id="J8be5djoPyq5z8u-Urgu-61" style="rounded=0;orthogonalLoop=1;jettySize=auto;html=1;exitX=0.5;exitY=0;exitDx=0;exitDy=0;entryX=0;entryY=1;entryDx=0;entryDy=0;" parent="1" source="J8be5djoPyq5z8u-Urgu-47" target="J8be5djoPyq5z8u-Urgu-3" edge="1">
          <mxGeometry relative="1" as="geometry" />
        </mxCell>
        <mxCell id="J8be5djoPyq5z8u-Urgu-47" value="Merevlemez" style="ellipse;whiteSpace=wrap;html=1;align=center;" parent="1" vertex="1">
          <mxGeometry x="500" y="550" width="100" height="40" as="geometry" />
        </mxCell>
        <mxCell id="XJ3Val_hjWEMoDBAJj5s-3" style="rounded=0;orthogonalLoop=1;jettySize=auto;html=1;exitX=1;exitY=0.5;exitDx=0;exitDy=0;entryX=0.75;entryY=1;entryDx=0;entryDy=0;" parent="1" source="XJ3Val_hjWEMoDBAJj5s-1" target="J8be5djoPyq5z8u-Urgu-4" edge="1">
          <mxGeometry relative="1" as="geometry" />
        </mxCell>
        <mxCell id="XJ3Val_hjWEMoDBAJj5s-1" value="" style="triangle;whiteSpace=wrap;html=1;rotation=-90;" parent="1" vertex="1">
          <mxGeometry x="632.5" y="200" width="45" height="42.5" as="geometry" />
        </mxCell>
        <mxCell id="XJ3Val_hjWEMoDBAJj5s-4" style="rounded=0;orthogonalLoop=1;jettySize=auto;html=1;exitX=1;exitY=0.5;exitDx=0;exitDy=0;entryX=0.5;entryY=1;entryDx=0;entryDy=0;" parent="1" source="XJ3Val_hjWEMoDBAJj5s-2" target="J8be5djoPyq5z8u-Urgu-4" edge="1">
          <mxGeometry relative="1" as="geometry" />
        </mxCell>
        <mxCell id="XJ3Val_hjWEMoDBAJj5s-2" value="" style="triangle;whiteSpace=wrap;html=1;rotation=-90;" parent="1" vertex="1">
          <mxGeometry x="537.5" y="200" width="45" height="42.5" as="geometry" />
        </mxCell>
        <mxCell id="XJ3Val_hjWEMoDBAJj5s-6" style="rounded=0;orthogonalLoop=1;jettySize=auto;html=1;exitX=0.5;exitY=0;exitDx=0;exitDy=0;entryX=0;entryY=0.5;entryDx=0;entryDy=0;" parent="1" source="XJ3Val_hjWEMoDBAJj5s-26" target="XJ3Val_hjWEMoDBAJj5s-2" edge="1">
          <mxGeometry relative="1" as="geometry">
            <mxPoint x="559.9999999999998" y="269.9999999999999" as="sourcePoint" />
            <mxPoint x="642" y="254" as="targetPoint" />
          </mxGeometry>
        </mxCell>
        <mxCell id="XJ3Val_hjWEMoDBAJj5s-7" value="Telefonszám" style="rhombus;whiteSpace=wrap;html=1;" parent="1" vertex="1">
          <mxGeometry x="334" y="110" width="80" height="80" as="geometry" />
        </mxCell>
        <mxCell id="XJ3Val_hjWEMoDBAJj5s-8" style="rounded=0;orthogonalLoop=1;jettySize=auto;html=1;exitX=0;exitY=0.5;exitDx=0;exitDy=0;entryX=1.02;entryY=0.614;entryDx=0;entryDy=0;entryPerimeter=0;" parent="1" source="XJ3Val_hjWEMoDBAJj5s-7" target="J8be5djoPyq5z8u-Urgu-1" edge="1">
          <mxGeometry relative="1" as="geometry" />
        </mxCell>
        <mxCell id="XJ3Val_hjWEMoDBAJj5s-12" style="rounded=0;orthogonalLoop=1;jettySize=auto;html=1;exitX=0;exitY=0;exitDx=0;exitDy=0;entryX=1;entryY=1;entryDx=0;entryDy=0;" parent="1" source="XJ3Val_hjWEMoDBAJj5s-11" target="J8be5djoPyq5z8u-Urgu-1" edge="1">
          <mxGeometry relative="1" as="geometry" />
        </mxCell>
        <mxCell id="XJ3Val_hjWEMoDBAJj5s-11" value="Ki használja" style="rhombus;whiteSpace=wrap;html=1;" parent="1" vertex="1">
          <mxGeometry x="390" y="240" width="80" height="80" as="geometry" />
        </mxCell>
        <mxCell id="XJ3Val_hjWEMoDBAJj5s-19" style="rounded=0;orthogonalLoop=1;jettySize=auto;html=1;exitX=0.5;exitY=0;exitDx=0;exitDy=0;entryX=0;entryY=0.5;entryDx=0;entryDy=0;" parent="1" source="XJ3Val_hjWEMoDBAJj5s-14" target="XJ3Val_hjWEMoDBAJj5s-18" edge="1">
          <mxGeometry relative="1" as="geometry" />
        </mxCell>
        <mxCell id="XJ3Val_hjWEMoDBAJj5s-14" value="Szobaszám" style="ellipse;whiteSpace=wrap;html=1;align=center;fontStyle=4;" parent="1" vertex="1">
          <mxGeometry x="12.5" y="400" width="100" height="40" as="geometry" />
        </mxCell>
        <mxCell id="XJ3Val_hjWEMoDBAJj5s-17" style="rounded=0;orthogonalLoop=1;jettySize=auto;html=1;exitX=0.5;exitY=0;exitDx=0;exitDy=0;entryX=0.5;entryY=1;entryDx=0;entryDy=0;" parent="1" source="XJ3Val_hjWEMoDBAJj5s-16" target="J8be5djoPyq5z8u-Urgu-1" edge="1">
          <mxGeometry relative="1" as="geometry" />
        </mxCell>
        <mxCell id="XJ3Val_hjWEMoDBAJj5s-16" value="email" style="rhombus;whiteSpace=wrap;html=1;" parent="1" vertex="1">
          <mxGeometry x="150" y="210" width="80" height="80" as="geometry" />
        </mxCell>
        <mxCell id="XJ3Val_hjWEMoDBAJj5s-20" style="rounded=0;orthogonalLoop=1;jettySize=auto;html=1;exitX=0.5;exitY=0;exitDx=0;exitDy=0;entryX=0.5;entryY=1;entryDx=0;entryDy=0;" parent="1" source="XJ3Val_hjWEMoDBAJj5s-18" target="XJ3Val_hjWEMoDBAJj5s-16" edge="1">
          <mxGeometry relative="1" as="geometry" />
        </mxCell>
        <mxCell id="XJ3Val_hjWEMoDBAJj5s-18" value="Helyiség" style="whiteSpace=wrap;html=1;align=center;" parent="1" vertex="1">
          <mxGeometry x="140" y="340" width="100" height="40" as="geometry" />
        </mxCell>
        <mxCell id="XJ3Val_hjWEMoDBAJj5s-25" value="" style="edgeStyle=orthogonalEdgeStyle;rounded=0;orthogonalLoop=1;jettySize=auto;html=1;exitX=0.5;exitY=0;exitDx=0;exitDy=0;" parent="1" source="XJ3Val_hjWEMoDBAJj5s-24" target="XJ3Val_hjWEMoDBAJj5s-1" edge="1">
          <mxGeometry relative="1" as="geometry" />
        </mxCell>
        <mxCell id="XJ3Val_hjWEMoDBAJj5s-24" value="Mobil" style="whiteSpace=wrap;html=1;align=center;" parent="1" vertex="1">
          <mxGeometry x="613" y="275" width="84" height="30" as="geometry" />
        </mxCell>
        <mxCell id="XJ3Val_hjWEMoDBAJj5s-26" value="Vezetékes" style="whiteSpace=wrap;html=1;align=center;" parent="1" vertex="1">
          <mxGeometry x="517" y="275" width="86" height="30" as="geometry" />
        </mxCell>
        <mxCell id="XJ3Val_hjWEMoDBAJj5s-28" style="rounded=0;orthogonalLoop=1;jettySize=auto;html=1;exitX=0.5;exitY=0;exitDx=0;exitDy=0;entryX=0.5;entryY=1;entryDx=0;entryDy=0;" parent="1" source="XJ3Val_hjWEMoDBAJj5s-27" target="XJ3Val_hjWEMoDBAJj5s-24" edge="1">
          <mxGeometry relative="1" as="geometry" />
        </mxCell>
        <mxCell id="XJ3Val_hjWEMoDBAJj5s-27" value="Telefonszám" style="ellipse;whiteSpace=wrap;html=1;align=center;" parent="1" vertex="1">
          <mxGeometry x="640" y="340" width="84" height="30" as="geometry" />
        </mxCell>
        <mxCell id="XJ3Val_hjWEMoDBAJj5s-31" style="rounded=0;orthogonalLoop=1;jettySize=auto;html=1;exitX=0.5;exitY=0;exitDx=0;exitDy=0;entryX=0.5;entryY=1;entryDx=0;entryDy=0;" parent="1" source="XJ3Val_hjWEMoDBAJj5s-30" target="XJ3Val_hjWEMoDBAJj5s-26" edge="1">
          <mxGeometry relative="1" as="geometry" />
        </mxCell>
        <mxCell id="XJ3Val_hjWEMoDBAJj5s-30" value="Szobaszám" style="ellipse;whiteSpace=wrap;html=1;align=center;" parent="1" vertex="1">
          <mxGeometry x="522" y="340" width="84" height="30" as="geometry" />
        </mxCell>
        <mxCell id="XJ3Val_hjWEMoDBAJj5s-34" style="rounded=0;orthogonalLoop=1;jettySize=auto;html=1;exitX=1;exitY=0.5;exitDx=0;exitDy=0;entryX=0;entryY=0.5;entryDx=0;entryDy=0;" parent="1" source="XJ3Val_hjWEMoDBAJj5s-33" target="J8be5djoPyq5z8u-Urgu-1" edge="1">
          <mxGeometry relative="1" as="geometry" />
        </mxCell>
        <mxCell id="XJ3Val_hjWEMoDBAJj5s-33" value="&lt;u&gt;Telefonszám&lt;/u&gt;" style="ellipse;whiteSpace=wrap;html=1;align=center;" parent="1" vertex="1">
          <mxGeometry y="130" width="100" height="40" as="geometry" />
        </mxCell>
        <mxCell id="XJ3Val_hjWEMoDBAJj5s-36" style="rounded=0;orthogonalLoop=1;jettySize=auto;html=1;exitX=1;exitY=0.5;exitDx=0;exitDy=0;entryX=0.25;entryY=1;entryDx=0;entryDy=0;" parent="1" source="XJ3Val_hjWEMoDBAJj5s-35" target="XJ3Val_hjWEMoDBAJj5s-18" edge="1">
          <mxGeometry relative="1" as="geometry" />
        </mxCell>
        <mxCell id="XJ3Val_hjWEMoDBAJj5s-35" value="" style="triangle;whiteSpace=wrap;html=1;rotation=-90;" parent="1" vertex="1">
          <mxGeometry x="112.5" y="420" width="45" height="42.5" as="geometry" />
        </mxCell>
        <mxCell id="XJ3Val_hjWEMoDBAJj5s-38" style="rounded=0;orthogonalLoop=1;jettySize=auto;html=1;exitX=0.5;exitY=0;exitDx=0;exitDy=0;entryX=0;entryY=0.5;entryDx=0;entryDy=0;" parent="1" source="XJ3Val_hjWEMoDBAJj5s-37" target="XJ3Val_hjWEMoDBAJj5s-35" edge="1">
          <mxGeometry relative="1" as="geometry" />
        </mxCell>
        <mxCell id="XJ3Val_hjWEMoDBAJj5s-37" value="Iroda" style="whiteSpace=wrap;html=1;align=center;" parent="1" vertex="1">
          <mxGeometry x="70" y="505" width="80" height="30" as="geometry" />
        </mxCell>
        <mxCell id="XJ3Val_hjWEMoDBAJj5s-40" style="edgeStyle=orthogonalEdgeStyle;rounded=0;orthogonalLoop=1;jettySize=auto;html=1;exitX=0.5;exitY=0;exitDx=0;exitDy=0;entryX=0.5;entryY=1;entryDx=0;entryDy=0;" parent="1" source="XJ3Val_hjWEMoDBAJj5s-39" target="XJ3Val_hjWEMoDBAJj5s-37" edge="1">
          <mxGeometry relative="1" as="geometry" />
        </mxCell>
        <mxCell id="XJ3Val_hjWEMoDBAJj5s-39" value="Telefonszám" style="ellipse;whiteSpace=wrap;html=1;align=center;" parent="1" vertex="1">
          <mxGeometry x="60" y="555" width="97.5" height="30" as="geometry" />
        </mxCell>
        <mxCell id="nqwOCqm9ArOqmD_4J2SY-6" style="rounded=0;orthogonalLoop=1;jettySize=auto;html=1;exitX=1;exitY=0.5;exitDx=0;exitDy=0;entryX=0.5;entryY=1;entryDx=0;entryDy=0;" edge="1" parent="1" source="nqwOCqm9ArOqmD_4J2SY-1" target="XJ3Val_hjWEMoDBAJj5s-18">
          <mxGeometry relative="1" as="geometry" />
        </mxCell>
        <mxCell id="nqwOCqm9ArOqmD_4J2SY-1" value="" style="triangle;whiteSpace=wrap;html=1;rotation=-90;" vertex="1" parent="1">
          <mxGeometry x="172.5" y="420" width="45" height="42.5" as="geometry" />
        </mxCell>
        <mxCell id="nqwOCqm9ArOqmD_4J2SY-2" style="rounded=0;orthogonalLoop=1;jettySize=auto;html=1;exitX=0.5;exitY=0;exitDx=0;exitDy=0;entryX=0;entryY=0.5;entryDx=0;entryDy=0;" edge="1" parent="1" source="nqwOCqm9ArOqmD_4J2SY-3" target="nqwOCqm9ArOqmD_4J2SY-1">
          <mxGeometry relative="1" as="geometry" />
        </mxCell>
        <mxCell id="nqwOCqm9ArOqmD_4J2SY-3" value="Targyalo / Konf terem" style="whiteSpace=wrap;html=1;align=center;" vertex="1" parent="1">
          <mxGeometry x="185" y="495" width="80" height="30" as="geometry" />
        </mxCell>
        <mxCell id="nqwOCqm9ArOqmD_4J2SY-4" style="rounded=0;orthogonalLoop=1;jettySize=auto;html=1;exitX=0.5;exitY=0;exitDx=0;exitDy=0;entryX=0.5;entryY=1;entryDx=0;entryDy=0;" edge="1" parent="1" source="nqwOCqm9ArOqmD_4J2SY-5" target="nqwOCqm9ArOqmD_4J2SY-3">
          <mxGeometry relative="1" as="geometry" />
        </mxCell>
        <mxCell id="nqwOCqm9ArOqmD_4J2SY-5" value="Felhasznalo" style="ellipse;whiteSpace=wrap;html=1;align=center;" vertex="1" parent="1">
          <mxGeometry x="176.25" y="555" width="97.5" height="30" as="geometry" />
        </mxCell>
        <mxCell id="nqwOCqm9ArOqmD_4J2SY-8" style="rounded=0;orthogonalLoop=1;jettySize=auto;html=1;exitX=0.5;exitY=0;exitDx=0;exitDy=0;entryX=1;entryY=1;entryDx=0;entryDy=0;" edge="1" parent="1" source="nqwOCqm9ArOqmD_4J2SY-7" target="nqwOCqm9ArOqmD_4J2SY-3">
          <mxGeometry relative="1" as="geometry" />
        </mxCell>
        <mxCell id="nqwOCqm9ArOqmD_4J2SY-7" value="idopont" style="ellipse;whiteSpace=wrap;html=1;align=center;" vertex="1" parent="1">
          <mxGeometry x="281.25" y="555" width="97.5" height="30" as="geometry" />
        </mxCell>
        <mxCell id="nqwOCqm9ArOqmD_4J2SY-11" style="rounded=0;orthogonalLoop=1;jettySize=auto;html=1;exitX=0.5;exitY=0;exitDx=0;exitDy=0;entryX=1;entryY=0.75;entryDx=0;entryDy=0;" edge="1" parent="1" source="nqwOCqm9ArOqmD_4J2SY-10" target="XJ3Val_hjWEMoDBAJj5s-24">
          <mxGeometry relative="1" as="geometry" />
        </mxCell>
        <mxCell id="nqwOCqm9ArOqmD_4J2SY-10" value="Felhasznalo" style="ellipse;whiteSpace=wrap;html=1;align=center;" vertex="1" parent="1">
          <mxGeometry x="728" y="330" width="84" height="30" as="geometry" />
        </mxCell>
        <mxCell id="nqwOCqm9ArOqmD_4J2SY-14" style="rounded=0;orthogonalLoop=1;jettySize=auto;html=1;exitX=0;exitY=0.5;exitDx=0;exitDy=0;entryX=1;entryY=0.5;entryDx=0;entryDy=0;" edge="1" parent="1" source="nqwOCqm9ArOqmD_4J2SY-12" target="XJ3Val_hjWEMoDBAJj5s-18">
          <mxGeometry relative="1" as="geometry" />
        </mxCell>
        <mxCell id="nqwOCqm9ArOqmD_4J2SY-12" value="Szobaszam" style="rhombus;whiteSpace=wrap;html=1;" vertex="1" parent="1">
          <mxGeometry x="334" y="370" width="80" height="80" as="geometry" />
        </mxCell>
      </root>
    </mxGraphModel>
  </diagram>
</mxfile>
